<svg xmlns="http://www.w3.org/2000/svg" width="24" height="24" viewBox="0 0 24 24">
    <g fill="none" fill-rule="evenodd">
        <path d="M0 0H24V24H0z"/>
        <g stroke="#737373" stroke-linecap="round" stroke-linejoin="round" stroke-width="1.5">
            <path d="M11.18 11.18c-1.128.86-2.502 1.337-3.92 1.36C2.64 12.54 0 7.26 0 7.26c.821-1.53 1.96-2.867 3.34-3.92m2.534-1.202c.454-.106.92-.16 1.386-.158 4.62 0 7.26 5.28 7.26 5.28-.4.75-.878 1.455-1.426 2.105M8.66 8.66c-.493.53-1.237.748-1.938.569-.702-.18-1.25-.727-1.429-1.429-.179-.701.04-1.445.569-1.938M0 0l14.52 14.52" transform="translate(5 5)"/>
        </g>
    </g>
</svg>
