<svg xmlns="http://www.w3.org/2000/svg" width="24" height="24" viewBox="0 0 24 24">
    <g fill="none" fill-rule="evenodd">
        <path d="M0 0H24V24H0z"/>
        <g stroke="#FFF" stroke-linecap="round" stroke-linejoin="round" stroke-width="1.5" transform="translate(2 2)">
            <circle cx="9.57" cy="9.57" r="2.61"/>
            <path d="M16.008 12.18c-.237.537-.123 1.164.287 1.583l.052.053c.327.326.51.769.51 1.23 0 .462-.183.905-.51 1.232-.326.326-.769.51-1.23.51-.463 0-.905-.184-1.232-.51l-.052-.052c-.42-.41-1.047-.525-1.583-.288-.526.226-.868.742-.87 1.314v.148c0 .961-.78 1.74-1.74 1.74-.961 0-1.74-.779-1.74-1.74v-.078c-.014-.59-.387-1.11-.94-1.314-.537-.237-1.164-.123-1.583.287l-.053.052c-.326.327-.769.51-1.23.51-.462 0-.905-.183-1.232-.51-.326-.326-.51-.769-.51-1.23 0-.463.184-.905.51-1.232l.053-.052c.41-.42.524-1.047.287-1.583-.226-.526-.742-.868-1.314-.87H1.74C.779 11.38 0 10.6 0 9.64 0 8.679.779 7.9 1.74 7.9h.078c.59-.014 1.11-.387 1.314-.94.237-.537.123-1.164-.287-1.583l-.052-.053c-.327-.326-.51-.769-.51-1.23 0-.462.183-.905.51-1.232.326-.326.769-.51 1.23-.51.463 0 .905.184 1.232.51l.052.053c.42.41 1.047.524 1.583.287h.07c.526-.226.868-.742.87-1.314V1.74C7.83.779 8.609 0 9.57 0s1.74.779 1.74 1.74v.078c.002.572.344 1.089.87 1.314.537.237 1.164.123 1.583-.287l.053-.052c.326-.327.769-.51 1.23-.51.462 0 .905.183 1.232.51.326.326.51.769.51 1.23 0 .463-.184.905-.51 1.232l-.052.052c-.41.42-.525 1.047-.288 1.583v.07c.226.526.742.868 1.314.87h.148c.961 0 1.74.779 1.74 1.74s-.779 1.74-1.74 1.74h-.078c-.572.002-1.089.344-1.314.87z"/>
        </g>
    </g>
</svg>
